<svg width="70" height="70" viewBox="0 0 70 70" fill="none" xmlns="http://www.w3.org/2000/svg">
<circle cx="35" cy="35" r="34" stroke="white" stroke-width="2"/>
<path d="M33.5 55C33.5 55.8284 34.1716 56.5 35 56.5C35.8284 56.5 36.5 55.8284 36.5 55H33.5ZM36.0607 13.9393C35.4749 13.3536 34.5251 13.3536 33.9393 13.9393L24.3934 23.4853C23.8076 24.0711 23.8076 25.0208 24.3934 25.6066C24.9792 26.1924 25.9289 26.1924 26.5147 25.6066L35 17.1213L43.4853 25.6066C44.0711 26.1924 45.0208 26.1924 45.6066 25.6066C46.1924 25.0208 46.1924 24.0711 45.6066 23.4853L36.0607 13.9393ZM36.5 55L36.5 15H33.5L33.5 55H36.5Z" fill="white"/>
</svg>
