<svg width="36" height="36" viewBox="0 0 36 36" fill="none" xmlns="http://www.w3.org/2000/svg">
<path fill-rule="evenodd" clip-rule="evenodd" d="M10.875 15C10.875 11.065 14.065 7.875 18 7.875C21.9351 7.875 25.125 11.065 25.125 15C25.125 18.935 21.9351 22.125 18 22.125C14.065 22.125 10.875 18.935 10.875 15ZM18 10.125C15.3076 10.125 13.125 12.3076 13.125 15C13.125 17.6924 15.3076 19.875 18 19.875C20.6924 19.875 22.875 17.6924 22.875 15C22.875 12.3076 20.6924 10.125 18 10.125Z" fill="#05566A"/>
<path fill-rule="evenodd" clip-rule="evenodd" d="M5.28658 13.2853C5.81807 6.83736 11.2063 1.875 17.6761 1.875H18.324C24.7938 1.875 30.182 6.83736 30.7135 13.2853C30.999 16.749 29.9291 20.1883 27.7291 22.8789L20.5395 31.6715C19.227 33.2767 16.7731 33.2767 15.4606 31.6715L8.27098 22.8789C6.071 20.1883 5.00107 16.749 5.28658 13.2853ZM17.6761 4.125C12.3773 4.125 7.96427 8.18922 7.52898 13.4701C7.29136 16.3529 8.18182 19.2154 10.0128 21.4546L17.2024 30.2473C17.6147 30.7514 18.3854 30.7514 18.7977 30.2473L25.9873 21.4546C27.8183 19.2153 28.7087 16.3529 28.4711 13.4701C28.0358 8.18922 23.6228 4.125 18.324 4.125H17.6761Z" fill="#05566A"/>
</svg>
