<svg width="34" height="34" viewBox="0 0 34 34" fill="none" xmlns="http://www.w3.org/2000/svg">
<path fill-rule="evenodd" clip-rule="evenodd" d="M3.97172 11.8337C3.57485 15.5211 3.59255 19.7739 4.1448 23.4464C4.45037 25.4784 6.10882 27.0363 8.156 27.2142L10.2955 27.4002C14.7566 27.788 19.243 27.788 23.7042 27.4002L25.8437 27.2142C27.8909 27.0363 29.5493 25.4784 29.8549 23.4464C30.4071 19.7739 30.4248 15.5213 30.028 11.8339C29.9767 11.4064 29.919 10.9795 29.8549 10.5533C29.5493 8.52121 27.8909 6.96338 25.8437 6.78543L23.7042 6.59944C19.243 6.21164 14.7566 6.21164 10.2955 6.59944L8.156 6.78543C6.10882 6.96338 4.45037 8.52121 4.1448 10.5533C4.08072 10.9794 4.02303 11.4062 3.97172 11.8337ZM10.4795 8.71646C14.8182 8.33931 19.1815 8.33931 23.5201 8.71646L25.6596 8.90244C26.7283 8.99534 27.594 9.80853 27.7535 10.8693C27.7701 10.9794 27.7862 11.0896 27.8019 11.1999L19.9238 15.5766C18.1053 16.5868 15.8942 16.5868 14.0758 15.5766L6.19781 11.1999C6.21348 11.0897 6.2296 10.9794 6.24617 10.8693C6.40568 9.80853 7.27139 8.99534 8.34002 8.90244L10.4795 8.71646ZM28.0619 13.4863C28.3367 16.699 28.2339 19.9359 27.7535 23.1304C27.594 24.1911 26.7283 25.0043 25.6596 25.0972L23.5202 25.2832C19.1815 25.6603 14.8182 25.6603 10.4795 25.2832L8.34003 25.0972C7.27139 25.0043 6.40568 24.1911 6.24617 23.1304C5.76579 19.9359 5.663 16.699 5.93779 13.4864L13.0438 17.4342C15.504 18.801 18.4955 18.801 20.9558 17.4342L28.0619 13.4863Z" fill="#05566A"/>
</svg>
